HIERARCHY
ROOT pelvis
{
	OFFSET 0.003123 -0.351407 0.012037
	CHANNELS 6 Xposition Yposition Zposition Zrotation Yrotation Xrotation 
	JOINT left_hip
	{
		OFFSET 0.058189 -0.092763 -0.026001
		CHANNELS 3 Zrotation Yrotation Xrotation
		JOINT left_knee
		{
			OFFSET 0.054695 -0.378753 -0.009396
			CHANNELS 3 Zrotation Yrotation Xrotation
			JOINT left_ankle
			{
				OFFSET -0.043453 -0.403059 -0.031876
				CHANNELS 3 Zrotation Yrotation Xrotation
				JOINT left_foot
				{
					OFFSET 0.047257 -0.057997 0.118216
					CHANNELS 3 Zrotation Yrotation Xrotation
					End Site
					{
						OFFSET 0.000000 0.000000 0.000000
					}
				}
			}
		}
	}
	JOINT right_hip
	{
		OFFSET -0.063267 -0.103908 -0.021250
		CHANNELS 3 Zrotation Yrotation Xrotation
		JOINT right_knee
		{
			OFFSET -0.044210 -0.362380 -0.016824
			CHANNELS 3 Zrotation Yrotation Xrotation
			JOINT right_ankle
			{
				OFFSET 0.015417 -0.410728 -0.020192
				CHANNELS 3 Zrotation Yrotation Xrotation
				JOINT right_foot
				{
					OFFSET -0.038812 -0.058328 0.119049
					CHANNELS 3 Zrotation Yrotation Xrotation
					End Site
					{
						OFFSET 0.000000 0.000000 0.000000
					}
				}
			}
		}
	}
	JOINT spine_1
	{
		OFFSET -0.002763 0.109891 -0.027618
		CHANNELS 3 Zrotation Yrotation Xrotation
		JOINT spine_2
		{
			OFFSET 0.009448 0.131853 -0.005940
			CHANNELS 3 Zrotation Yrotation Xrotation
			JOINT spine_3
			{
				OFFSET -0.011330 0.052235 0.028447
				CHANNELS 3 Zrotation Yrotation Xrotation
				JOINT neck
				{
					OFFSET -0.012164 0.165167 -0.031615
					CHANNELS 3 Zrotation Yrotation Xrotation
					JOINT head
					{
						OFFSET 0.024783 0.160452 0.020737
						CHANNELS 3 Zrotation Yrotation Xrotation
						End Site
						{
							OFFSET 0.000000 0.000000 0.000000
						}
					}
				}
				JOINT left_collar
				{
					OFFSET 0.046364 0.084944 -0.007220
					CHANNELS 3 Zrotation Yrotation Xrotation
					JOINT left_shoulder
					{
						OFFSET 0.119239 0.057728 -0.015461
						CHANNELS 3 Zrotation Yrotation Xrotation
						JOINT left_elbow
						{
							OFFSET 0.254123 -0.072151 -0.042459
							CHANNELS 3 Zrotation Yrotation Xrotation
							JOINT left_wrist
							{
								OFFSET 0.251987 0.023221 -0.002472
								CHANNELS 3 Zrotation Yrotation Xrotation
								JOINT left_index_1
								{
									OFFSET 0.101902 -0.008688 0.019351
									CHANNELS 3 Zrotation Yrotation Xrotation
									JOINT left_index_2
									{
										OFFSET 0.030149 -0.011154 0.001151
										CHANNELS 3 Zrotation Yrotation Xrotation
										JOINT left_index_3
										{
											OFFSET 0.006504 -0.021577 -0.002433
											CHANNELS 3 Zrotation Yrotation Xrotation
											End Site
											{
												OFFSET 0.000000 0.000000 0.000000
											}
										}
									}
								}
								JOINT left_middle_1
								{
									OFFSET 0.109398 -0.006328 -0.003981
									CHANNELS 3 Zrotation Yrotation Xrotation
									JOINT left_middle_2
									{
										OFFSET 0.026472 -0.015218 -0.004641
										CHANNELS 3 Zrotation Yrotation Xrotation
										JOINT left_middle_3
										{
											OFFSET 0.005022 -0.023347 -0.001911
											CHANNELS 3 Zrotation Yrotation Xrotation
											End Site
											{
												OFFSET 0.000000 0.000000 0.000000
											}
										}
									}
								}
								JOINT left_pinky_1
								{
									OFFSET 0.084047 -0.014539 -0.043750
									CHANNELS 3 Zrotation Yrotation Xrotation
									JOINT left_pinky_2
									{
										OFFSET 0.012124 -0.014448 -0.005375
										CHANNELS 3 Zrotation Yrotation Xrotation
										JOINT left_pinky_3
										{
											OFFSET 0.003798 -0.018853 0.000167
											CHANNELS 3 Zrotation Yrotation Xrotation
											End Site
											{
												OFFSET 0.000000 0.000000 0.000000
											}
										}
									}
								}
								JOINT left_ring_1
								{
									OFFSET 0.097444 -0.009268 -0.027345
									CHANNELS 3 Zrotation Yrotation Xrotation
									JOINT left_ring_2
									{
										OFFSET 0.023561 -0.016057 -0.001895
										CHANNELS 3 Zrotation Yrotation Xrotation
										JOINT left_ring_3
										{
											OFFSET 0.004257 -0.023548 0.000814
											CHANNELS 3 Zrotation Yrotation Xrotation
											End Site
											{
												OFFSET 0.000000 0.000000 0.000000
											}
										}
									}
								}
								JOINT left_thumb_1
								{
									OFFSET 0.040636 -0.017977 0.025611
									CHANNELS 3 Zrotation Yrotation Xrotation
									JOINT left_thumb_2
									{
										OFFSET 0.021637 -0.017639 0.011623
										CHANNELS 3 Zrotation Yrotation Xrotation
										JOINT left_thumb_3
										{
											OFFSET 0.024002 -0.008356 0.006548
											CHANNELS 3 Zrotation Yrotation Xrotation
											End Site
											{
												OFFSET 0.000000 0.000000 0.000000
											}
										}
									}
								}
							}
						}
					}
				}
				JOINT right_collar
				{
					OFFSET -0.047695 0.084339 -0.013400
					CHANNELS 3 Zrotation Yrotation Xrotation
					JOINT right_shoulder
					{
						OFFSET -0.102578 0.053524 -0.012669
						CHANNELS 3 Zrotation Yrotation Xrotation
						JOINT right_elbow
						{
							OFFSET -0.271150 -0.036492 -0.026467
							CHANNELS 3 Zrotation Yrotation Xrotation
							JOINT right_wrist
							{
								OFFSET -0.249267 -0.004533 -0.015325
								CHANNELS 3 Zrotation Yrotation Xrotation
								JOINT right_index_1
								{
									OFFSET -0.099881 -0.011783 0.019600
									CHANNELS 3 Zrotation Yrotation Xrotation
									JOINT right_index_2
									{
										OFFSET -0.030148 -0.011154 0.001151
										CHANNELS 3 Zrotation Yrotation Xrotation
										JOINT right_index_3
										{
											OFFSET -0.006505 -0.021577 -0.002432
											CHANNELS 3 Zrotation Yrotation Xrotation
											End Site
											{
												OFFSET 0.000000 0.000000 0.000000
											}
										}
									}
								}
								JOINT right_middle_1
								{
									OFFSET -0.107376 -0.009422 -0.003734
									CHANNELS 3 Zrotation Yrotation Xrotation
									JOINT right_middle_2
									{
										OFFSET -0.026472 -0.015218 -0.004641
										CHANNELS 3 Zrotation Yrotation Xrotation
										JOINT right_middle_3
										{
											OFFSET -0.005022 -0.023347 -0.001911
											CHANNELS 3 Zrotation Yrotation Xrotation
											End Site
											{
												OFFSET 0.000000 0.000000 0.000000
											}
										}
									}
								}
								JOINT right_pinky_1
								{
									OFFSET -0.082027 -0.017634 -0.043503
									CHANNELS 3 Zrotation Yrotation Xrotation
									JOINT right_pinky_2
									{
										OFFSET -0.012123 -0.014448 -0.005374
										CHANNELS 3 Zrotation Yrotation Xrotation
										JOINT right_pinky_3
										{
											OFFSET -0.003798 -0.018852 0.000167
											CHANNELS 3 Zrotation Yrotation Xrotation
											End Site
											{
												OFFSET 0.000000 0.000000 0.000000
											}
										}
									}
								}
								JOINT right_ring_1
								{
									OFFSET -0.095423 -0.012362 -0.027099
									CHANNELS 3 Zrotation Yrotation Xrotation
									JOINT right_ring_2
									{
										OFFSET -0.023561 -0.016057 -0.001895
										CHANNELS 3 Zrotation Yrotation Xrotation
										JOINT right_ring_3
										{
											OFFSET -0.004257 -0.023548 0.000816
											CHANNELS 3 Zrotation Yrotation Xrotation
											End Site
											{
												OFFSET 0.000000 0.000000 0.000000
											}
										}
									}
								}
								JOINT right_thumb_1
								{
									OFFSET -0.038613 -0.021074 0.025861
									CHANNELS 3 Zrotation Yrotation Xrotation
									JOINT right_thumb_2
									{
										OFFSET -0.021636 -0.017639 0.011623
										CHANNELS 3 Zrotation Yrotation Xrotation
										JOINT right_thumb_3
										{
											OFFSET -0.024004 -0.008353 0.006547
											CHANNELS 3 Zrotation Yrotation Xrotation
											End Site
											{
												OFFSET 0.000000 0.000000 0.000000
											}
										}
									}
								}
							}
						}
					}
				}
			}
		}
	}
}
MOTION
Frames: 4
Frame Time: 0.050000
0.015367 0.613602 0.041504 -2.458403 3.153497 -31.276425 13.033213 -2.862799 -49.972039 -22.309494 8.870852 84.239786 8.048513 14.482138 -1.864090 0.000000 0.000000 0.000000 -10.015375 1.055484 -55.403679 21.732747 -19.485924 87.479897 -6.204673 -11.376447 -1.445493 0.000000 0.000000 0.000000 -5.833303 -2.098761 49.228038 -7.506786 -0.588952 -17.646877 7.566985 2.992087 15.718943 -0.872672 -0.554205 4.761071 0.000000 0.000000 0.000000 3.145644 -11.854763 5.575970 -13.445131 -44.022976 -11.219498 38.012386 -46.676818 -12.906424 2.706420 6.023698 -35.297716 -11.236315 12.516764 0.244905 -61.167491 -3.755388 3.455554 0.000000 0.000000 0.000000 -43.771583 5.921034 -0.145395 -10.672760 -4.522211 -11.166868 0.000000 0.000000 0.000000 -34.596994 -15.444622 -14.382227 12.349946 1.395727 7.368639 0.000000 0.000000 0.000000 -43.976191 -11.284912 1.670877 4.816794 0.915469 0.841567 0.000000 0.000000 0.000000 27.913587 -0.276388 -14.128544 -19.007224 13.551223 11.894077 0.000000 0.000000 0.000000 -2.946253 11.933062 5.676827 18.634552 44.566608 -0.124695 -101.373345 62.838090 -72.183320 -3.483995 -4.507345 -32.506959 13.575140 -7.150608 0.257253 45.100130 6.695242 -3.281668 0.000000 0.000000 0.000000 46.922661 8.866148 -2.500491 -4.245312 1.642914 -13.945002 0.000000 0.000000 0.000000 31.455957 28.555074 -27.611198 -16.869918 -2.064732 11.093555 0.000000 0.000000 0.000000 46.415132 23.969297 -1.854079 -17.437505 -1.293731 -2.249425 0.000000 0.000000 0.000000 -25.350400 -12.294217 -5.757248 18.619386 0.318569 4.457736 0.000000 0.000000 0.000000 
0.014661 0.611023 0.029625 -1.953154 3.376794 -30.436089 10.341542 -4.356424 -51.774385 -18.819318 5.612502 85.524233 8.021031 15.411716 0.335380 0.000000 0.000000 0.000000 -8.675841 1.738601 -57.158781 18.710134 -17.066603 89.867063 -6.072062 -11.529644 -0.439592 0.000000 0.000000 0.000000 -6.973377 -1.681179 49.057482 -8.524974 -0.314955 -18.076333 8.140183 1.576416 15.903260 -0.395947 -0.865224 6.026504 0.000000 0.000000 0.000000 6.432672 -11.505707 5.393139 -13.776086 -43.009684 -10.700872 35.426192 -43.770921 -10.655652 4.576495 2.570712 -43.096467 -7.039093 7.419205 0.339104 -60.172333 -7.004796 2.299760 0.000000 0.000000 0.000000 -43.230054 5.185418 1.390816 -3.861067 -3.916390 -14.132058 0.000000 0.000000 0.000000 -36.856165 -9.896916 -6.682540 14.463583 -0.510272 0.684761 0.000000 0.000000 0.000000 -44.982069 -7.043717 5.341753 13.874001 -1.366788 -10.046638 0.000000 0.000000 0.000000 31.041547 -7.711686 -17.008721 -19.977631 16.163877 13.975936 0.000000 0.000000 0.000000 -6.141859 10.197854 4.805261 18.916792 45.369122 -0.205075 -100.174062 62.348669 -70.834594 -5.611457 -1.505956 -36.335136 9.381965 -5.854540 0.453019 43.316967 8.600679 -5.143371 0.000000 0.000000 0.000000 40.857830 8.805730 -2.173627 1.809783 3.484778 -15.674752 0.000000 0.000000 0.000000 23.138117 25.502208 -26.062915 -8.947007 -2.578131 9.682599 0.000000 0.000000 0.000000 39.434900 21.389248 -2.209207 -8.410814 1.198227 -7.671272 0.000000 0.000000 0.000000 -25.217554 -10.130307 -6.921633 17.991859 -1.766945 5.318948 0.000000 0.000000 0.000000 
0.012349 0.609734 0.024345 -1.410644 2.307923 -30.255061 10.962545 -3.703309 -51.643398 -18.194551 5.427768 85.250083 7.026043 12.786911 -1.345416 0.000000 0.000000 0.000000 -9.398871 1.800155 -58.043365 19.891154 -17.380573 88.593067 -7.850497 -15.427441 1.502817 0.000000 0.000000 0.000000 -6.987919 -1.526425 50.942148 -8.265143 -0.676617 -18.706946 7.260468 1.842435 16.803774 -1.738198 -0.328860 4.622427 0.000000 0.000000 0.000000 5.935787 -10.116068 4.814063 -12.591111 -40.737099 -10.406703 38.952251 -46.082676 -12.878340 3.631381 2.257344 -42.952015 -4.859183 6.678905 0.829704 -53.581862 -11.854007 -4.529258 0.000000 0.000000 0.000000 -38.539662 -0.685335 0.312193 -7.043723 -4.905819 -13.715140 0.000000 0.000000 0.000000 -30.382212 -11.970666 -9.741450 10.481497 -0.773311 -1.330062 0.000000 0.000000 0.000000 -41.191318 -9.405186 3.772352 10.735503 -2.427666 -11.833477 0.000000 0.000000 0.000000 28.101303 -6.030401 -15.342327 -19.753091 11.486725 10.888240 0.000000 0.000000 0.000000 -7.322581 9.610077 4.498956 13.286067 46.800675 -2.131254 -102.146135 59.162246 -69.111477 -2.741134 -5.455090 -38.020062 5.432425 -8.726760 1.131728 42.539312 11.741762 -8.114935 0.000000 0.000000 0.000000 37.696896 10.391803 -2.763981 3.813457 4.758149 -16.394035 0.000000 0.000000 0.000000 19.138910 27.645679 -29.073769 -9.737137 -3.116517 12.144125 0.000000 0.000000 0.000000 36.238304 23.283360 -3.574853 -10.786057 0.143763 -5.159695 0.000000 0.000000 0.000000 -27.455863 -13.366605 -5.125791 20.453747 -0.062863 5.457861 0.000000 0.000000 0.000000 
0.005680 0.611023 0.020386 -1.863314 2.229928 -29.323430 11.833185 -3.356653 -52.570756 -18.243353 5.494989 84.695776 6.275418 9.947936 -3.879026 0.000000 0.000000 0.000000 -8.926253 2.100934 -58.822033 20.549315 -17.805244 87.693503 -8.596776 -16.070250 -0.850657 0.000000 0.000000 0.000000 -7.257253 -1.386355 50.368570 -7.858657 -0.185306 -16.375673 6.754258 2.627754 15.479177 -1.361113 -0.461825 4.870441 0.000000 0.000000 0.000000 6.575529 -7.920787 4.017435 -12.053708 -43.063095 -11.238504 38.359255 -47.094659 -13.053298 4.392516 3.200795 -38.039891 -1.746129 3.267989 0.788880 -23.781810 -9.951057 -13.567679 0.000000 0.000000 0.000000 -26.328809 -5.536850 -2.265997 -5.353403 -3.699165 -11.052572 0.000000 0.000000 0.000000 -17.814389 -14.735968 -16.364865 4.802765 1.116466 3.680687 0.000000 0.000000 0.000000 -29.762551 -11.533796 -0.910355 9.790006 -1.508200 -9.161843 0.000000 0.000000 0.000000 25.008884 0.247710 -12.432569 -18.793880 1.238614 5.566314 0.000000 0.000000 0.000000 -7.231525 10.177447 4.735847 9.198085 42.958582 -3.146950 -105.256602 55.715291 -67.468231 -0.348144 -6.215213 -37.335152 0.283082 -10.752474 2.746161 15.183403 8.217568 -13.345892 0.000000 0.000000 0.000000 24.274521 10.000812 -4.216158 1.147354 4.503108 -15.080533 0.000000 0.000000 0.000000 8.333345 28.351113 -33.767362 -12.564981 -2.526486 11.697336 0.000000 0.000000 0.000000 24.528684 21.972225 -7.053418 -13.254828 0.386513 -7.940975 0.000000 0.000000 0.000000 -32.650603 -19.586227 0.258249 23.223190 6.181018 4.720483 0.000000 0.000000 0.000000 
